<?xml version="1.0" encoding="utf-8"?>
<!-- Generator: Adobe Illustrator 25.0.1, SVG Export Plug-In . SVG Version: 6.00 Build 0)  -->
<svg version="1.1" id="Слой_1" xmlns="http://www.w3.org/2000/svg" xmlns:xlink="http://www.w3.org/1999/xlink" x="0px" y="0px"
	 viewBox="0 0 453.4 180" style="enable-background:new 0 0 453.4 180;" xml:space="preserve">
<style type="text/css">
	.st0{fill:#F1A93B;}
	.st1{fill:#FFFFFF;}
</style>
<g id="e">
	<g>
		<path class="st0" d="M63.5,74.1h14.2c11.5,0,16.9,6.6,16.9,27.6c0,22.2-5.5,29.8-16.9,29.8H63.5L63.5,74.1L63.5,74.1z M76.7,119.8
			h0.7c2.9,0,3.1-2.1,3.1-18.7c0-13.8-0.5-15.3-3-15.3h-0.7L76.7,119.8L76.7,119.8z"/>
		<path class="st0" d="M110.3,121.7l-0.7,9.9H96.4l6.2-57.4H123l6.4,57.4h-13.6l-0.8-9.9H110.3L110.3,121.7z M113.9,108
			c-0.2-4.9-0.7-17-0.9-21.6h-0.6c-0.3,5.8-0.9,16.5-1.1,21.6L113.9,108L113.9,108z"/>
		<path class="st0" d="M136.2,131.6v-16.2c0-1.1-0.1-2.6-0.4-3.9l-9.1-37.3h14.4c0.9,8.4,1.6,17.3,2.3,25.3
			c0.5-4.9,1.7-16.8,2.5-25.3h13.3l-9.3,37.4c-0.2,1-0.3,1.6-0.3,2.7v17.3L136.2,131.6L136.2,131.6z"/>
		<path class="st1" d="M161,74.1h16.2c8.3,0,13.7,5.2,13.7,17.6c0,13.3-4.7,18.6-13.9,18.6h-3v21.3h-13L161,74.1L161,74.1z M174,98
			h1c2.3,0,2.8-1.4,2.8-6.3c0-4.9-0.9-6-2.9-6H174L174,98L174,98z"/>
		<path class="st1" d="M194.4,74.1h13.2v44.5h12.5l-1.3,13h-24.4C194.4,131.6,194.4,74.1,194.4,74.1z"/>
		<path class="st1" d="M236.2,121.7l-0.7,9.9h-13.2l6.2-57.4h20.3l6.4,57.4h-13.6l-0.8-9.9H236.2L236.2,121.7z M239.8,108
			c-0.2-4.9-0.7-17-0.9-21.6h-0.6c-0.3,5.8-0.9,16.5-1.1,21.6L239.8,108L239.8,108z"/>
		<path class="st1" d="M258.3,131.6V74.1h14c3.6,21.8,4.8,28.9,5.1,31h0.4c-0.5-8.2-0.9-19.6-0.9-27.7v-3.3h11.6v57.4h-14.3
			c-3.9-25.8-4.5-30.7-4.8-32.7H269c0.4,6.6,0.9,21.7,0.9,29.5v3.2L258.3,131.6L258.3,131.6z"/>
		<path class="st1" d="M293.9,131.6V74.1h14c3.6,21.8,4.8,28.9,5.1,31h0.4c-0.5-8.2-0.9-19.6-0.9-27.7v-3.3h11.6v57.4h-14.3
			c-3.9-25.8-4.5-30.7-4.8-32.7h-0.5c0.4,6.6,0.9,21.7,0.9,29.5v3.2L293.9,131.6L293.9,131.6z"/>
		<path class="st1" d="M354.6,108.6h-12.3V119h14.1l-1.5,12.6h-25.5V74.2h25.8v12.7h-12.9v9h12.3L354.6,108.6L354.6,108.6z"/>
		<path class="st1" d="M372.8,109.1v22.5h-12.9V74.1h16.9c9.3,0,13.1,5.6,13.1,15.9c0,7.4-2.2,11.4-5.7,13.1
			c3.9,1.8,5.4,5.7,5.4,13.4v1.4c0,5.6,0.1,12,0.3,13.6h-12.9c-0.3-1.4-0.5-7.8-0.5-14.6v-1.7c0-5.4-0.5-6.2-2.7-6.2L372.8,109.1
			L372.8,109.1z M372.9,97.6h0.7c2.3,0,3.1-0.7,3.1-6.3c0-4.7-0.4-5.7-2.8-5.7h-0.9L372.9,97.6L372.9,97.6z"/>
	</g>
</g>
</svg>
